<?xml version="1.0" encoding="UTF-8" standalone="no"?>
<svg id="svg4588" xmlns:rdf="http://www.w3.org/1999/02/22-rdf-syntax-ns#" xmlns="http://www.w3.org/2000/svg" height="32" width="32" version="1.1" xmlns:cc="http://creativecommons.org/ns#" xmlns:xlink="http://www.w3.org/1999/xlink" xmlns:dc="http://purl.org/dc/elements/1.1/">
 <defs id="defs4590">
  <linearGradient id="E" y2="1055.4" gradientUnits="userSpaceOnUse" y1="1086.4" gradientTransform="matrix(1.0329,0,0,1.0329,-59.414,-1122.2)" x2="73.009" x1="73.009">
   <stop id="stop4324" stop-color="#fff" offset="0"/>
   <stop id="stop4326" stop-color="#939393" offset="1"/>
  </linearGradient>
  <linearGradient id="F" y2="1070.9" gradientUnits="userSpaceOnUse" y1="1086.4" gradientTransform="matrix(1.0329,0,0,1.0329,-59.414,-1090.2)" x2="73.009" x1="73.009">
   <stop id="stop3297-5-3-1-9-9" stop-color="#fff" offset="0"/>
   <stop id="stop4354-4-5-0-3" stop-color="#fff" stop-opacity="0" offset="1"/>
  </linearGradient>
 </defs>
 <metadata id="metadata4593">
  <rdf:RDF>
   <cc:Work rdf:about="">
    <dc:format>image/svg+xml</dc:format>
    <dc:type rdf:resource="http://purl.org/dc/dcmitype/StillImage"/>
    <dc:title/>
   </cc:Work>
  </rdf:RDF>
 </metadata>
 <g id="g45718" style="enable-background:new" transform="translate(-2.5e-4,-3e-4)">
  <g id="g4276">
   <rect id="rect4364" style="enable-background:new" transform="scale(1,-1)" ry="3.878" width="32" y="-32" x="0" height="32" fill="url(#E)"/>
   <rect id="rect4366" style="enable-background:new" ry="3.878" height="32" width="32" y=".00050004" x="0" fill="url(#F)"/>
   <rect id="rect4426" stroke-linejoin="round" style="enable-background:new" ry="3.755" height="30.979" width="30.979" stroke="#939393" stroke-linecap="round" y=".51050" x="0.511" stroke-width="1.021" fill="none"/>
  </g>
 </g>
 <g id="layer1" transform="translate(-5e-8 -1020.4)">
  <path id="path3037" d="m8.7545 1029.1 14.491 14.491m0-14.491-14.491 14.491m7.245-20.1v25.697m-12.849-12.849h25.697m-12.945-10.723a10.723 10.723 0 1 0 0.19321 0" stroke="#000" stroke-linecap="round" stroke-width="3.188" fill="none"/>
  <circle id="circle3039" transform="matrix(.096606 0 0 .096606 1.5091 1021.9)" cy="150" cx="150" r="20" fill="#fff"/>
 </g>
</svg>
