<?xml version="1.0" encoding="UTF-8" standalone="no"?><!DOCTYPE svg PUBLIC "-//W3C//DTD SVG 1.1//EN" "http://www.w3.org/Graphics/SVG/1.1/DTD/svg11.dtd"><svg width="100%" height="100%" viewBox="0 0 28 28" version="1.1" xmlns="http://www.w3.org/2000/svg" xmlns:xlink="http://www.w3.org/1999/xlink" xml:space="preserve" xmlns:serif="http://www.serif.com/" style="fill-rule:evenodd;clip-rule:evenodd;stroke-linejoin:round;stroke-miterlimit:1.41421;"><g id="layer1"><rect x="-1.749" y="-2.3" width="32.022" height="32.155" style="fill:#282828;"/><path d="M27.741,0.161c-0.115,-0.107 -0.251,-0.161 -0.411,-0.161c-2.974,0 -5.429,0.402 -7.367,1.206c-1.937,0.804 -3.976,2.265 -6.119,4.383c-0.911,0.917 -1.914,2.022 -3.008,3.313l-6.478,0.339c-0.182,0.023 -0.33,0.114 -0.444,0.272l-3.829,6.524c-0.137,0.226 -0.108,0.447 0.085,0.662l1.094,1.087c0.103,0.102 0.234,0.153 0.393,0.153c0.069,0 0.12,-0.005 0.154,-0.017l4.718,-1.444l4.803,4.774l-1.453,4.688c-0.057,0.204 -0.011,0.385 0.137,0.544l1.094,1.087c0.125,0.102 0.256,0.153 0.393,0.153c0.103,0 0.194,-0.023 0.273,-0.068l6.564,-3.806c0.16,-0.113 0.251,-0.26 0.274,-0.441l0.342,-6.438c1.299,-1.088 2.41,-2.084 3.333,-2.99c2.029,-2.028 3.473,-4.069 4.333,-6.124c0.86,-2.056 1.29,-4.494 1.29,-7.313c0,-0.147 -0.057,-0.275 -0.171,-0.383Zm-4.136,6.43c-0.319,0.317 -0.707,0.476 -1.163,0.476c-0.455,0 -0.843,-0.159 -1.162,-0.476c-0.319,-0.317 -0.478,-0.702 -0.478,-1.155c0,-0.453 0.159,-0.838 0.478,-1.155c0.319,-0.317 0.707,-0.476 1.162,-0.476c0.456,0 0.844,0.159 1.163,0.476c0.319,0.317 0.478,0.702 0.478,1.155c0,0.453 -0.159,0.838 -0.478,1.155Z" style="fill:#696565;fill-rule:nonzero;"/></g></svg>