<svg xmlns="http://www.w3.org/2000/svg" xml:space="preserve" style="fill-rule:evenodd;clip-rule:evenodd;stroke-linejoin:round;stroke-miterlimit:1.41421" viewBox="0 0 28 28"><path d="M-1.749-2.3h32.022v32.155H-1.749z" style="fill:#282828"/><path d="M27.741.161A.58.58 0 0 0 27.33 0q-4.46 0-7.367 1.206-2.905 1.206-6.119 4.383a57 57 0 0 0-3.008 3.313l-6.478.339a.63.63 0 0 0-.444.272L.085 16.037q-.205.34.085.662l1.094 1.087a.54.54 0 0 0 .393.153q.103 0 .154-.017l4.718-1.444 4.803 4.774-1.453 4.688a.54.54 0 0 0 .137.544l1.094 1.087a.6.6 0 0 0 .393.153.54.54 0 0 0 .273-.068l6.564-3.806a.62.62 0 0 0 .274-.441l.342-6.438a58 58 0 0 0 3.333-2.99q3.043-3.042 4.333-6.124 1.29-3.084 1.29-7.313a.5.5 0 0 0-.171-.383m-4.136 6.43a1.6 1.6 0 0 1-1.163.476q-.683 0-1.162-.476a1.57 1.57 0 0 1-.478-1.155q0-.68.478-1.155a1.6 1.6 0 0 1 1.162-.476q.684 0 1.163.476.478.476.478 1.155 0 .68-.478 1.155" style="fill:#696565;fill-rule:nonzero"/></svg>